<?xml version="1.0" encoding="UTF-8"?>
<svg width="173px" height="210px" viewBox="0 0 173 210" version="1.1" xmlns="http://www.w3.org/2000/svg" xmlns:xlink="http://www.w3.org/1999/xlink">
	<defs>
		<path
			d="M163.649847,35.2113351 C164.38334,35.7101109 164.750086,36.2969048 164.750086,36.9717168 C164.750086,37.8812456 163.811217,39.4362492 161.933479,41.6367275 C156.916391,47.4459856 151.957982,50.3506147 147.058253,50.3506147 C144.065604,50.3506147 141.60107,49.1623575 139.664651,46.7858431 C137.728232,44.4093287 136.760022,41.3726702 136.760022,37.6758675 C136.760022,30.9864194 139.283235,24.223621 144.329662,17.3874723 C149.40543,10.5219849 154.422518,7.08924116 159.380925,7.08924116 C162.960366,7.08924116 164.750086,9.01099113 164.750086,12.8544911 C164.750086,17.1674248 162.652299,21.3776711 158.456724,25.48523 C154.290487,29.5927857 149.200051,32.4534049 143.185414,34.0670877 C143.77221,41.1379532 146.559481,44.673386 151.547226,44.673386 C156.476294,44.673386 160.510501,41.519369 163.649847,35.2113351 L163.649847,35.2113351 Z"
			id="path-1"></path>
	</defs>
	<g id="Page-1" stroke="none" stroke-width="1" fill="none" fill-rule="evenodd">
		<g id="webexcess-globe" transform="translate(0.000000, 1.000000)">
			<path
				d="M151.683,124.965 C163.743,111.225 170.346,93.799 170.346,75.35 C170.346,55.224 162.508,36.302 148.277,22.07 C134.045,7.838 115.123,0 94.997,0 C76.547,0 59.122,6.603 45.381,18.663 L35.099,8.381 C33.146,6.429 29.981,6.429 28.028,8.381 C-8.973,45.383 -8.973,105.589 28.028,142.591 C44.736,159.299 66.578,169.006 89.996,170.247 L89.996,198.624 L40.042,198.624 C37.281,198.624 35.042,200.863 35.042,203.624 C35.042,206.385 37.281,208.624 40.042,208.624 L149.952,208.624 C152.713,208.624 154.952,206.385 154.952,203.624 C154.952,200.863 152.713,198.624 149.952,198.624 L99.997,198.624 L99.997,170.264 C123.519,169.085 145.465,159.365 162.239,142.592 C164.192,140.639 164.192,137.473 162.239,135.521 L151.683,124.965 Z M95.133,160.386 C72.455,160.386 51.135,151.555 35.099,135.519 C3.182,103.603 2.037,52.39 31.667,19.09 L38.312,25.735 C12.405,55.298 13.528,100.44 41.717,128.629 C55.949,142.86 74.871,150.698 94.997,150.698 C113.446,150.698 130.872,144.095 144.612,132.035 L151.53,138.953 C135.975,152.811 116.136,160.386 95.133,160.386 Z"
				id="Shape" fill="#000000" fill-rule="nonzero"></path>
			<g id="path4809" fill-rule="nonzero">
				<use fill="#FFFFFF" fill-rule="evenodd" xlink:href="#path-1"></use>
				<path stroke="#000000" stroke-width="8"
					  d="M147.635267,36.860839 C148.31233,39.6652045 149.572156,40.673386 151.547226,40.673386 C154.762944,40.673386 157.546661,38.4970249 160.068813,33.4291467 L162.110242,29.3272099 L165.89909,31.9036307 C167.652879,33.0962094 168.750086,34.8517399 168.750086,36.9717168 C168.750086,39.1979447 167.485034,41.2931898 164.96077,44.2512073 C159.252864,50.8603608 153.294752,54.3506147 147.058253,54.3506147 C142.854544,54.3506147 139.254518,52.6148883 136.563711,49.3125351 C134.013596,46.1828482 132.760022,42.251184 132.760022,37.6758675 C132.760022,30.0705627 135.585455,22.4977456 141.113243,15.009521 C146.867964,7.22568308 152.913534,3.08924116 159.380925,3.08924116 C165.23563,3.08924116 168.750086,6.8629621 168.750086,12.8544911 C168.750086,18.3481246 166.164886,23.5366052 161.26502,28.3336457 C157.414335,32.1300943 152.858633,34.975879 147.635267,36.860839 Z"></path>
			</g>
			<path
				d="M143.361452,28.6979262 C144.212303,28.9913208 144.989806,29.138018 145.69396,29.138018 C149.332082,29.138018 152.515438,28.0231111 155.244027,25.7932972 C157.97262,23.56348 159.336917,20.9522471 159.336917,17.9595984 C159.336917,14.5268547 157.591204,12.8104828 154.09978,12.8104828 C151.576565,12.8104828 149.288069,14.3214766 147.234291,17.3434641 C145.209852,20.3361128 143.918906,24.1209335 143.361452,28.6979262 L143.361452,28.6979262 Z"
				id="path4809-path" fill="#000000"></path>
			<polygon id="Path" fill="#FFFFFF"
					 points="110.64103 83.6607562 116.397479 49.9670582 133.455574 49.9670582 119.988655 107.109038 104.937397 107.109038 95.4841475 73.2040906 85.9780884 107.109038 70.92683 107.109038 57.4599108 49.9670582 74.5180065 49.9670582 80.1688302 84.4529282 89.2523961 49.9670582 101.663089 49.9670582"></polygon>
		</g>
	</g>
</svg>
